<svg width="70" height="90" viewBox="0 0 70 90" fill="none" xmlns="http://www.w3.org/2000/svg">
<path d="M68 16.33V16.336L53.664 2H53.67L51.67 0H50.031H0V70V90H70V70V19.969V18.33L68 16.33ZM52.031 3.195L66.804 17.968H52.031V3.195ZM32.781 82.209C32.781 85.252 31.285 86.187 29.313 86.187C28.769 86.187 28.106 86.069 27.732 85.916L27.953 84.709C28.259 84.828 28.701 84.93 29.194 84.93C30.52 84.93 31.302 84.335 31.302 82.092V74.544H32.781V82.209V82.209ZM37.592 86.17C36.488 86.17 35.28 85.847 34.669 85.44L35.043 84.199C35.706 84.607 36.674 84.947 37.695 84.947C39.208 84.947 40.091 84.148 40.091 82.992C40.091 81.921 39.479 81.309 37.932 80.715C36.063 80.052 34.907 79.083 34.907 77.468C34.907 75.683 36.386 74.358 38.613 74.358C39.786 74.358 40.635 74.629 41.145 74.919L40.737 76.126C40.364 75.922 39.598 75.582 38.561 75.582C36.998 75.582 36.403 76.517 36.403 77.299C36.403 78.37 37.1 78.897 38.68 79.509C40.618 80.257 41.604 81.192 41.604 82.874C41.604 84.641 40.295 86.17 37.592 86.17ZM68 70H2V2H50.031V19.969H68V70Z" fill="#F7DF1E"/>
<path d="M10.378 44.457L27.18 36.65V40.36L14.473 45.925V45.995L27.18 51.561V55.271L10.378 47.465V44.457Z" fill="#F7DF1E"/>
<path d="M29.768 56.673L37.258 31.295H40.794L33.303 56.673H29.768Z" fill="#F7DF1E"/>
<path d="M59.624 47.572L42.822 55.272V51.562L55.808 45.996V45.926L42.822 40.361V36.651L59.624 44.352V47.572Z" fill="#F7DF1E"/>
</svg>
